<svg id="Layer_1" data-name="Layer 1" xmlns="http://www.w3.org/2000/svg" xmlns:xlink="http://www.w3.org/1999/xlink" viewBox="0 0 100.89 126.24"><defs><style>.cls-1{font-size:12px;fill:#231f20;font-family:CarbonRegularW00-Regular, CarbonRegular;}.cls-2{fill:#2f1110;}.cls-3{fill:url(#Orange_Yellow);}.cls-4{fill:#34c0c9;stroke:#231f20;stroke-miterlimit:10;}.cls-5{fill:url(#White_Black);}.cls-6{fill:url(#White_Black-2);}</style><linearGradient id="Orange_Yellow" x1="51.32" y1="53.92" x2="108.51" y2="53.92" gradientUnits="userSpaceOnUse"><stop offset="0" stop-color="#fff33b"/><stop offset="0.04" stop-color="#fee72e"/><stop offset="0.12" stop-color="#fed51b"/><stop offset="0.2" stop-color="#fdca10"/><stop offset="0.28" stop-color="#fdc70c"/><stop offset="0.67" stop-color="#f3903f"/><stop offset="0.89" stop-color="#ed683c"/><stop offset="1" stop-color="#e93e3a"/></linearGradient><linearGradient id="White_Black" x1="70.31" y1="113.22" x2="70.31" y2="113.22" gradientUnits="userSpaceOnUse"><stop offset="0" stop-color="#fff"/><stop offset="1" stop-color="#231f20"/></linearGradient><linearGradient id="White_Black-2" x1="65.97" y1="131.22" x2="77.87" y2="131.22" gradientTransform="translate(87.2 -19.08) rotate(39.25)" xlink:href="#White_Black"/></defs><text class="cls-1" transform="translate(7.78 121.41)">DevelopedByKPK</text><path class="cls-2" d="M74,72.61l36.61-27-2.06,100h0l-7.78-71.39L146.05,36l-80.4,92.67-.6.7S92.05,97.32,74,72.61Z" transform="translate(-49.48 -35.99)"/><path class="cls-3" d="M51.32,45.49c11,28.14,51-23.8,42.1-1.38s-33.48,21.76-8,23.57,23,1.82,23,1.82" transform="translate(-49.48 -35.99)"/><path class="cls-4" d="M92.51,122.38" transform="translate(-49.48 -35.99)"/><path class="cls-4" d="M62.76,54.87" transform="translate(-49.48 -35.99)"/><path class="cls-4" d="M146.05,74.55" transform="translate(-49.48 -35.99)"/><path class="cls-5" d="M70.31,113.22" transform="translate(-49.48 -35.99)"/><path class="cls-6" d="M67.09,122.11l-8.77,11.46h0l-8.84-2.2" transform="translate(-49.48 -35.99)"/></svg>